<?xml version="1.0" encoding="UTF-8"?>
<svg version="1.1" xmlns="http://www.w3.org/2000/svg" xmlns:xlink="http://www.w3.org/1999/xlink"
  width="24px"
  height="24px"
  viewBox="0 0 700 700"
>
  <path fill="#FFB258" d="m357.88 493.4c-1.5078 0.14062-2.1211 0.24219-2.7383 0.24609-4.1055 0.015625-8.2031 0.003907-12.906 0.003907-0.089844-1.7578-0.24609-3.4102-0.24609-5.0664-0.003906-59.535-0.12891-119.07 0.17188-178.59 0.039062-7.5078-2.9219-13.719-5.3359-20.281-0.375-1.0195-2.2852-1.9609-3.5547-2.0703-3.293-0.29297-6.625-0.09375-9.9414-0.09375h-223.6-21.555c-0.16797-6.7031 0.25391-13.125 2.4805-19.938 12.93-39.48 27.965-77.98 49.668-113.58 9.9688-16.359 21.422-31.543 35.812-44.398 32.379-28.918 69.746-29.664 103.05-1.8125 20.035 16.762 34.719 37.828 47.383 60.328 7.8672 13.988 14.727 28.547 22.035 42.852 0.82422 1.6133 1.625 3.2422 3.2422 4.7031v-149.36h15.848v5.6094c-0.035156 60.637-0.22266 121.27 0.14062 181.91 0.035156 5.6445 3.4648 11.297 5.4805 16.883 0.20703 0.57031 1.4961 0.91406 2.3359 1.0547 1.0742 0.17969 2.1992 0.050781 3.3086 0.050781 81.008-0.003906 162.01-0.003906 243.02-0.011718h9.6758c0.46875 6.6797 0.34766 12.562-2.0508 18.676-9.2461 23.582-17.238 47.672-27.066 70.996-11.355 26.945-25.742 52.336-45.031 74.602-11.906 13.742-25.418 25.559-42.824 31.82-22.547 8.1094-43.766 4.4141-63.57-8.4727-19.449-12.652-33.645-30.312-46.367-49.309-13.188-19.691-23.922-40.723-33.859-62.188-0.71875-1.5508-1.4375-3.0977-3.0078-4.5078 0.003906 49.875 0.003906 99.738 0.003906 149.95zm11.914-205.65c0.46094 1.668 0.64844 2.75 1.0469 3.7539 13.316 33.551 27.578 66.652 47.062 97.215 9.7148 15.238 20.59 29.508 34.832 40.887 17.785 14.207 34.82 15.301 52.586 3.1797 12.449-8.4883 21.973-19.867 30.379-32.176 22.062-32.277 36.883-68.012 49.422-104.8 0.875-2.5664 1.5273-5.2031 2.3594-8.0586-72.914-0.003906-145.03-0.003906-217.69-0.003906zm-257.73-16.09h217.44c0-0.66797 0.11719-1.1641-0.023438-1.5781-0.65625-1.9336-1.3438-3.8594-2.0898-5.7578-13.402-34.055-28.195-67.441-48.496-98.062-10.148-15.309-21.422-29.727-37.043-39.969-16.32-10.703-31.035-10.457-47.086 0.48047-12.465 8.4961-21.973 19.84-30.445 32.09-18.867 27.281-32.129 57.371-43.668 88.297-2.9492 7.9062-5.5977 15.941-8.5898 24.5z" />
</svg>
